<?xml version="1.0" encoding="utf-8"?>
<!-- Generator: Adobe Illustrator 16.0.0, SVG Export Plug-In . SVG Version: 6.00 Build 0)  -->
<!DOCTYPE svg PUBLIC "-//W3C//DTD SVG 1.1//EN" "http://www.w3.org/Graphics/SVG/1.1/DTD/svg11.dtd">
<svg version="1.1" id="Layer_1" xmlns="http://www.w3.org/2000/svg" xmlns:xlink="http://www.w3.org/1999/xlink" x="0px" y="0px"
	 width="75px" height="45px" viewBox="95 0 75 45" enable-background="new 95 0 75 45" xml:space="preserve">
<g>
	<path fill-rule="evenodd" clip-rule="evenodd" fill="#F58634" d="M149.079,44.043c-9.5,0-19,0-28.5,0
		c-0.726-0.334-0.937-0.91-0.934-1.688c0.022-5.225,0.012-10.449,0.012-15.674c0-0.16,0-0.32,0-0.484
		c2.329-0.218,4.41-0.956,6.321-2.195c0.216-0.141,0.509-0.232,0.766-0.233c5.532-0.013,11.064-0.01,16.596-0.01
		c0.979,0,1.463-0.487,1.464-1.469c0.001-3.199,0.001-6.398,0-9.597c0-1.037-0.472-1.507-1.509-1.507c-3.549,0-7.097,0-10.645,0
		c-0.163,0-0.326,0-0.498,0c-0.182-1.782-0.681-3.425-1.464-5.029c0.234,0,0.401,0,0.567,0c5.686,0,11.371,0.01,17.057-0.012
		c0.778-0.003,1.355,0.206,1.688,0.934c0,12.015,0,24.029,0,36.044C149.801,43.535,149.492,43.842,149.079,44.043z M138.471,38.846
		c1.646,0,3.292,0.002,4.938-0.001c0.818-0.001,1.384-0.509,1.393-1.241c0.01-0.748-0.563-1.271-1.404-1.271
		c-3.25-0.002-6.501-0.002-9.752,0c-0.844,0-1.417,0.517-1.413,1.262c0.003,0.745,0.575,1.25,1.425,1.252
		C135.262,38.848,136.866,38.846,138.471,38.846z M127.193,28.786c0.432,0,0.864,0.013,1.295-0.004
		c0.688-0.026,1.216-0.567,1.226-1.234c0.011-0.684-0.525-1.255-1.23-1.271c-0.85-0.018-1.7-0.016-2.549-0.001
		c-0.707,0.013-1.248,0.574-1.247,1.256c0.002,0.683,0.543,1.23,1.252,1.252C126.357,28.797,126.775,28.786,127.193,28.786z
		 M134.744,28.786c0.418,0,0.836,0.01,1.254-0.002c0.714-0.021,1.253-0.559,1.26-1.243c0.007-0.702-0.541-1.255-1.279-1.266
		c-0.821-0.012-1.644-0.011-2.466,0c-0.734,0.01-1.286,0.565-1.28,1.264c0.005,0.699,0.558,1.232,1.3,1.246
		C133.937,28.793,134.34,28.787,134.744,28.786z M142.286,28.785c0.432,0,0.864,0.015,1.295-0.003
		c0.687-0.027,1.213-0.572,1.221-1.239c0.009-0.684-0.528-1.251-1.235-1.266c-0.849-0.018-1.699-0.017-2.549,0
		c-0.706,0.013-1.246,0.578-1.241,1.26c0.004,0.682,0.545,1.227,1.256,1.247C141.45,28.797,141.868,28.786,142.286,28.785z
		 M127.236,31.302c-0.418,0-0.836-0.006-1.253,0.002c-0.74,0.014-1.293,0.553-1.296,1.251c-0.002,0.7,0.548,1.249,1.287,1.259
		c0.821,0.011,1.644,0.012,2.465,0c0.736-0.012,1.284-0.569,1.274-1.271c-0.009-0.685-0.55-1.219-1.266-1.238
		C128.045,31.294,127.641,31.302,127.236,31.302z M134.73,33.816c0.418,0,0.836,0.008,1.254-0.002
		c0.735-0.019,1.283-0.571,1.273-1.272c-0.009-0.685-0.55-1.226-1.266-1.236c-0.835-0.014-1.672-0.015-2.507,0
		c-0.709,0.013-1.251,0.567-1.253,1.249c-0.003,0.682,0.537,1.235,1.244,1.259C133.895,33.827,134.313,33.815,134.73,33.816z
		 M142.295,31.303c-0.432,0-0.864-0.013-1.295,0.003c-0.685,0.026-1.216,0.572-1.224,1.236c-0.01,0.682,0.528,1.254,1.231,1.269
		c0.85,0.019,1.7,0.018,2.55,0.001c0.71-0.014,1.246-0.572,1.244-1.257c-0.002-0.686-0.54-1.229-1.253-1.25
		C143.132,31.292,142.713,31.303,142.295,31.303z M127.176,38.845c0.433,0,0.864,0.012,1.296-0.002
		c0.71-0.024,1.246-0.577,1.242-1.261c-0.003-0.686-0.541-1.234-1.255-1.247c-0.836-0.015-1.672-0.014-2.508,0
		c-0.712,0.011-1.256,0.558-1.264,1.239c-0.008,0.699,0.543,1.251,1.276,1.27C126.368,38.854,126.772,38.846,127.176,38.845z"/>
	<path fill-rule="evenodd" clip-rule="evenodd" fill="#FFFFFF" d="M117.478,1.126c-0.763,0.157-1.54,0.263-2.286,0.479
		c-4.348,1.262-7.534,5.07-8.031,9.553c-0.014,0.122-0.051,0.241-0.076,0.361c0-3.464,0-6.929,0-10.394
		C110.549,1.126,114.013,1.126,117.478,1.126z"/>
	<path fill-rule="evenodd" clip-rule="evenodd" fill="#FFFFFF" d="M149.079,44.043c0.413-0.201,0.722-0.508,0.922-0.922
		c0,0.307,0,0.614,0,0.922C149.693,44.043,149.386,44.043,149.079,44.043z"/>
	<path fill-rule="evenodd" clip-rule="evenodd" fill="#F58634" d="M132.126,13.712c3.409,0,6.759,0,10.136,0
		c0,2.503,0,4.994,0,7.507c-4.382,0-8.756,0-13.197,0C130.847,18.999,131.843,16.51,132.126,13.712z"/>
	<g>
		<path fill-rule="evenodd" clip-rule="evenodd" fill="#F58634" d="M126.62,8.889c0.639,0.111,1.043-0.201,1.412-0.608
			c0.252-0.278,0.528-0.534,0.797-0.803c1.749,3.324,1.765,8.924-2.283,12.888c-4.251,4.162-10.882,4.289-15.283,0.466
			c-4.478-3.888-5.223-10.423-1.699-15.228c3.482-4.748,9.553-5.651,13.951-3.485c-0.188,0.17-0.36,0.322-0.527,0.479
			c-0.137,0.129-0.268,0.266-0.4,0.399c-0.491,0.492-0.498,0.507-0.563,1.304c-2.72-1.042-5.357-0.899-7.871,0.602
			c-1.61,0.962-2.779,2.333-3.497,4.067c-1.457,3.516-0.488,7.471,2.416,9.947c2.818,2.402,6.951,2.718,10.11,0.754
			c1.807-1.123,3.055-2.701,3.708-4.728C127.544,12.919,127.433,10.915,126.62,8.889z"/>
		<path fill-rule="evenodd" clip-rule="evenodd" fill="#F58634" d="M121.308,6.915c-0.671,0.67-1.323,1.326-1.982,1.973
			c-0.049,0.048-0.157,0.063-0.233,0.054c-1.811-0.217-3.461,0.979-3.775,2.74c-0.323,1.808,0.821,3.521,2.62,3.923
			c2.265,0.505,4.376-1.433,4.07-3.732c-0.011-0.083,0.003-0.202,0.055-0.255c0.646-0.661,1.301-1.313,1.958-1.971
			c1.063,1.894,0.971,5.075-1.399,7.176c-2.275,2.017-5.777,1.986-8.028-0.08c-2.3-2.111-2.633-5.58-0.76-8.061
			C115.757,6.135,119.028,5.717,121.308,6.915z"/>
		<path fill-rule="evenodd" clip-rule="evenodd" fill="#F58634" d="M126.181,3.106c0.358-0.397,0.712-0.688,1.225-0.64
			c0.291,0.027,0.545,0.142,0.75,0.354c0.501,0.518,0.428,1.061-0.283,1.946c0.374,0,0.722,0,1.069,0c0.188,0,0.376,0.003,0.564,0
			c0.191-0.003,0.338,0.063,0.411,0.248c0.071,0.179-0.004,0.319-0.128,0.443c-0.433,0.433-0.865,0.865-1.298,1.297
			c-0.399,0.399-0.803,0.794-1.195,1.199c-0.143,0.146-0.298,0.207-0.501,0.205c-0.714-0.008-1.428-0.009-2.141,0.003
			c-0.116,0.002-0.26,0.061-0.342,0.143c-1.592,1.58-3.177,3.166-4.761,4.753c-0.321,0.321-0.691,0.482-1.148,0.382
			c-0.862-0.19-1.215-1.197-0.66-1.885c0.063-0.079,0.138-0.15,0.21-0.222c1.558-1.558,3.114-3.118,4.677-4.671
			c0.122-0.122,0.168-0.242,0.166-0.411c-0.009-0.706-0.015-1.412,0.005-2.117c0.004-0.155,0.074-0.345,0.18-0.454
			c0.821-0.843,1.658-1.669,2.488-2.502c0.136-0.136,0.281-0.231,0.48-0.144c0.195,0.085,0.234,0.252,0.232,0.446
			C126.178,1.997,126.181,2.514,126.181,3.106z"/>
	</g>
</g>
</svg>
