<svg width="13" height="26" viewBox="0 0 13 26" fill="none" xmlns="http://www.w3.org/2000/svg">
<path opacity="0.1" d="M11.0785 25.9966C11.5058 25.9975 11.92 25.8467 12.249 25.5705C12.4342 25.4149 12.5873 25.2238 12.6995 25.0082C12.8117 24.7926 12.8808 24.5567 12.9029 24.314C12.925 24.0713 12.8996 23.8266 12.8282 23.5939C12.7568 23.3611 12.6408 23.1449 12.4868 22.9577L4.29323 13.0254L12.1941 3.07462C12.3461 2.88508 12.4595 2.66699 12.528 2.43287C12.5964 2.19876 12.6186 1.95325 12.5931 1.71045C12.5676 1.46765 12.495 1.23235 12.3794 1.01807C12.2639 0.803793 12.1077 0.614762 11.9198 0.461845C11.7306 0.293152 11.509 0.165908 11.2689 0.0881012C11.0288 0.0102941 10.7755 -0.0163965 10.5248 0.00970332C10.274 0.0358031 10.0313 0.11413 9.81189 0.239769C9.59245 0.365409 9.40102 0.535647 9.24959 0.7398L0.415933 11.858C0.146933 12.1896 -0.00012207 12.6055 -0.00012207 13.0347C-0.00012207 13.4639 0.146933 13.8798 0.415933 14.2114L9.56051 25.3296C9.74398 25.5538 9.97705 25.7311 10.2408 25.847C10.5045 25.9629 10.7915 26.0142 11.0785 25.9966Z" fill="black"/>
</svg>
