<svg width="100" height="100" viewBox="0 0 100 100" fill="none" xmlns="http://www.w3.org/2000/svg">
<path d="M94.5897 80.4661C92.435 82.5504 90.1217 84.4619 87.6709 86.1827L71.5823 69.9995H84.1453C85.0594 69.9995 85.8006 69.2532 85.8006 68.3328V54.9996C85.8006 54.0792 85.0594 53.3329 84.1453 53.3329H75.8693V46.6663C75.8693 38.382 69.1998 31.6664 60.9724 31.6664H34.8863L25.9978 5.63329C24.8536 2.26957 21.7162 0.00729161 18.1852 0H6.35046C5.81769 0.00249998 5.31864 0.262915 5.00974 0.699995C4.69215 1.13749 4.60587 1.70332 4.77801 2.21665L22.9026 55.2829V68.3328C22.9026 69.2532 23.6437 69.9995 24.5578 69.9995H37.1208L21.0322 86.1827C18.5814 84.4619 16.2681 82.5504 14.1134 80.4661L11.8292 82.8661C23.2557 93.9208 38.5056 100.065 54.3516 99.9993C70.1975 100.065 85.4474 93.9208 96.8739 82.8661L94.5897 80.4661ZM60.9724 34.9997C67.3714 34.9997 72.5589 40.223 72.5589 46.6663V53.3329H42.2851L36.0284 34.9997H60.9724ZM8.66775 3.33331H18.1852C20.3026 3.3181 22.1968 4.65642 22.9026 6.66662L38.7926 53.3329H25.733L8.66775 3.33331ZM26.213 66.6662V56.6663H82.4901V66.6662H26.213ZM23.8791 88.0494L41.7885 69.9995H66.9146L84.824 88.0494C66.0913 99.4676 42.6116 99.4676 23.8791 88.0494Z" fill="#F58220"/>
<mask id="mask0" mask-type="alpha" maskUnits="userSpaceOnUse" x="0" y="0" width="100" height="100">
<path d="M94.1103 80.4662C91.9407 82.5505 89.6113 84.462 87.1436 86.1828L70.9437 69.9996H83.5937C84.5141 69.9996 85.2603 69.2533 85.2603 68.3329V54.9997C85.2603 54.0792 84.5141 53.333 83.5937 53.333H75.2604V46.6664C75.2604 38.3821 68.5448 31.6665 60.2605 31.6665H33.994L25.044 5.6333C23.892 2.26957 20.7328 0.00729162 17.1774 0H5.26082C4.72436 0.00249998 4.22186 0.262915 3.91082 0.699996C3.59103 1.13749 3.50416 1.70332 3.67749 2.21665L21.9274 55.283V68.3329C21.9274 69.2533 22.6736 69.9996 23.594 69.9996H36.244L20.0441 86.1828C17.5764 84.462 15.247 82.5505 13.0774 80.4662L10.7774 82.8661C22.283 93.9209 37.6383 100.065 53.5939 99.9994C69.5494 100.065 84.9047 93.9209 96.4103 82.8661L94.1103 80.4662ZM60.2605 34.9998C66.7038 34.9998 71.9271 40.2231 71.9271 46.6664V53.333H41.4439L35.144 34.9998H60.2605ZM7.59413 3.33331H17.1774C19.3095 3.3181 21.2168 4.65643 21.9274 6.66663L37.9273 53.333H24.7774L7.59413 3.33331ZM25.2607 66.6663V56.6663H81.927V66.6663H25.2607ZM22.9107 88.0495L40.9439 69.9996H66.2438L84.277 88.0495C65.4148 99.4677 41.7727 99.4677 22.9107 88.0495Z" fill="#F58220"/>
<path d="M31.9273 61.6663H28.594V64.9996H31.9273V61.6663Z" fill="#F58220"/>
<path d="M48.5939 61.6663H35.2606V64.9996H48.5939V61.6663Z" fill="#F58220"/>
</mask>
<g mask="url(#mask0)">
<rect x="-1.66664" y="70" width="100" height="40" fill="#F58220"/>
</g>
</svg>
