<svg width="101" height="102" viewBox="0 0 101 102" fill="none" xmlns="http://www.w3.org/2000/svg">
<path d="M50.4489 48.5134H50.4443C44.5928 48.5149 39.85 53.2593 39.8515 59.1108C39.8523 64.9622 44.5967 69.7051 50.4481 69.7036H50.4621C56.3135 69.6997 61.0541 64.9537 61.051 59.1023C61.0471 53.2508 56.3004 48.5095 50.4489 48.5134ZM55.673 64.3318C54.2983 65.7312 52.4224 66.5241 50.4605 66.5349H50.4474C46.3458 66.5334 43.0225 63.2077 43.024 59.1061C43.0255 55.0046 46.3512 51.6805 50.4528 51.682H50.4559C53.4443 51.7006 56.1294 53.5108 57.2689 56.2733C58.4076 59.0358 57.7787 62.2121 55.6722 64.3318H55.673Z" fill="#F58220"/>
<path d="M75.9187 41.582H75.9132C70.1005 41.582 65.3738 46.3644 65.3762 52.1864C65.3793 57.9969 70.1059 62.7722 75.9171 62.7722H76.0625C81.8536 62.7127 86.506 57.9806 86.4673 52.1887C86.4704 46.352 81.7554 41.6107 75.9187 41.582ZM81.1945 57.4051C79.8423 58.8014 77.9841 59.5943 76.0401 59.6036H75.9187C71.8171 59.6021 68.493 56.2764 68.4945 52.1748C68.4953 48.0732 71.8217 44.7491 75.9225 44.7507H75.9264C78.907 44.7862 81.5806 46.5918 82.7255 49.3442C83.8712 52.0959 83.2693 55.2653 81.1938 57.4051H81.1945Z" fill="#F58220"/>
<path d="M7.92157 78.1118V92.4356C7.92157 93.3213 8.62786 94.0462 9.51362 94.0686H33.4686V99.4157C33.4532 99.828 33.6048 100.23 33.8902 100.528C34.1757 100.827 34.5694 100.997 34.9825 101H65.9231C66.8026 101.002 67.5205 100.295 67.5314 99.4157V94.0686H91.4864C92.3721 94.0462 93.0784 93.3213 93.0784 92.4356V78.1566C93.0776 70.0038 86.4774 63.3904 78.3245 63.3726H73.7526C67.8424 63.3981 62.4976 66.8901 60.101 72.2921C57.8715 70.9955 55.3396 70.3093 52.7597 70.3039H48.1668C45.5947 70.3101 43.0689 70.9924 40.8425 72.2812C38.473 66.8831 33.1429 63.3904 27.2482 63.3726H22.6972C14.5497 63.3687 7.93782 69.9636 7.92157 78.1118H7.92157ZM73.7526 66.5412H78.3214C84.7252 66.5551 89.9098 71.7505 89.9098 78.1551V90.9H67.5314V85.1368C67.5414 81.217 65.9857 77.455 63.2109 74.6871C63.0577 74.5339 62.896 74.39 62.7382 74.2446C64.4532 69.6386 68.8372 66.5729 73.7526 66.5412ZM48.1692 73.4726H52.7573C59.1781 73.5004 64.3666 78.7152 64.3627 85.1352V97.8314H36.6373V85.0942C36.6373 78.7044 41.7793 73.4726 48.1692 73.4726ZM22.6995 66.5412H27.2451C32.1535 66.5621 36.5344 69.6255 38.2378 74.2284C35.1891 77.0164 33.4578 80.9609 33.4686 85.0919V90.9H11.0902V78.1141C11.1049 71.7142 16.3003 66.5358 22.6995 66.5412Z" fill="#F58220"/>
<path d="M24.9793 41.582H24.9738C19.1224 41.5836 14.3803 46.328 14.3811 52.1794C14.3826 58.0309 19.1271 62.7738 24.9793 62.7722H24.9847C27.7766 62.7753 30.454 61.6613 32.4197 59.6786C34.3853 57.6959 35.4761 55.0085 35.449 52.2166V52.1779C35.4676 49.3837 34.3745 46.697 32.4111 44.7097C30.447 42.7215 27.7735 41.5967 24.9793 41.582ZM24.9839 59.6036H24.9793C20.8777 59.602 17.5536 56.2764 17.5551 52.1748C17.5559 48.0732 20.8823 44.7491 24.9839 44.7507H24.987C29.0677 44.7793 32.3609 48.0964 32.3593 52.1771C32.275 56.3236 29.0375 59.6036 24.9839 59.6036Z" fill="#F58220"/>
<path d="M87.6765 38.7546C87.6765 18.2227 71.0319 1.57812 50.5 1.57812C29.9682 1.57812 13.3236 18.2227 13.3236 38.7546C13.3236 39.5506 13.9146 40.2236 14.7052 40.3257C15.495 40.4279 16.2377 39.9281 16.4404 39.1576C16.6678 38.292 17.5489 35.5875 18.6018 34.4356C20.0012 33.0903 21.8656 32.3369 23.8065 32.3307C25.7428 32.3206 27.6072 33.0702 28.9965 34.4201C30.3526 35.8219 31.1131 37.694 31.12 39.6442C31.12 40.5191 31.8294 41.2285 32.7043 41.2285C33.5793 41.2285 34.2887 40.5191 34.2887 39.6442C34.2569 37.6948 35.0166 35.8165 36.3952 34.4379C37.7737 33.0594 39.6527 32.299 41.6022 32.3307C43.5393 32.3206 45.4028 33.071 46.7922 34.4201C48.1483 35.8219 48.9095 37.694 48.9157 39.6442C48.9157 40.5191 49.6251 41.2285 50.5 41.2285C51.375 41.2285 52.0843 40.5191 52.0843 39.6442C52.0526 37.6948 52.8131 35.8165 54.1916 34.4379C55.5701 33.0594 57.4492 32.299 59.3979 32.3307C61.3349 32.3206 63.1985 33.0702 64.5887 34.4201C65.944 35.8219 66.7052 37.694 66.7114 39.6442C66.7114 40.5191 67.4208 41.2285 68.2957 41.2285C69.1706 41.2285 69.88 40.5191 69.88 39.6442C69.8483 37.6948 70.6087 35.8165 71.9873 34.4379C73.3658 33.0594 75.2449 32.299 77.1936 32.3307C79.1306 32.3206 80.9934 33.0702 82.3828 34.4194C83.4411 35.5604 84.3121 38.2239 84.5589 39.1576C84.7616 39.9281 85.505 40.4279 86.2949 40.3257C87.0847 40.2236 87.6757 39.5506 87.6757 38.7546H87.6765ZM77.1936 29.1621C74.4272 29.1628 71.7691 30.2389 69.7802 32.1628C69.757 32.1852 69.7346 32.2077 69.7129 32.2309C69.1799 32.7948 68.7057 33.4106 68.2957 34.0697C67.8865 33.4106 67.4115 32.7948 66.8793 32.2309C66.8684 32.2193 66.8568 32.2077 66.846 32.1961C62.7181 28.1633 56.1302 28.1486 51.9846 32.1628C51.9613 32.1852 51.9389 32.2077 51.9165 32.2309C51.3842 32.7948 50.9093 33.4106 50.5 34.0697C50.0908 33.4106 49.6158 32.7948 49.0836 32.2309L49.0495 32.1961C44.9224 28.1633 38.3345 28.1486 34.1889 32.1628C34.1657 32.1852 34.1425 32.2077 34.1208 32.2309C33.5886 32.7948 33.1136 33.4106 32.7043 34.0697C32.2943 33.4106 31.8201 32.7948 31.2871 32.2309C31.2763 32.2193 31.2647 32.2077 31.2539 32.1961C27.4509 28.4743 21.4819 28.1363 17.2828 31.4039C20.7323 15.8323 34.5362 4.74753 50.4861 4.74056C66.4352 4.73438 80.2485 15.8076 83.7118 31.3768C81.8436 29.938 79.5515 29.1597 77.1936 29.1621Z" fill="#F58220"/>
</svg>
