<svg width="43" height="43" viewBox="0 0 43 43" fill="none" xmlns="http://www.w3.org/2000/svg">
<g clip-path="url(#clip0)">
<path fill-rule="evenodd" clip-rule="evenodd" d="M11.25 6.972V10.722H9.381C6.2715 6.4815 4.2375 2.22975 5.01975 1.5135C5.42072 1.6206 5.80096 1.79399 6.14475 2.0265C7.21568 2.74093 8.45919 3.15388 9.74475 3.222C10.9165 3.22284 12.0395 2.75259 12.861 1.917C13.4088 1.31527 14.1848 0.97229 14.9985 0.97229C15.8122 0.97229 16.5882 1.31527 17.136 1.917C17.9572 2.75174 19.0791 3.2219 20.25 3.222C21.5367 3.15382 22.7814 2.7409 23.8538 2.0265C24.1962 1.78482 24.5835 1.61421 24.993 1.52475C25.7625 2.22975 23.7285 6.4815 20.619 10.722H18.75V6.972C18.75 6.55779 18.4142 6.222 18 6.222C17.5858 6.222 17.25 6.55779 17.25 6.972V10.722H12.75V6.972C12.75 6.55779 12.4142 6.222 12 6.222C11.5858 6.222 11.25 6.55779 11.25 6.972ZM7.125 12.222C6.50368 12.222 6 12.7257 6 13.347C6 13.9683 6.50368 14.472 7.125 14.472H22.875C23.4963 14.472 24 13.9683 24 13.347C24 12.7257 23.4963 12.222 22.875 12.222H7.125ZM2.67077 22.3275C3.9922 19.9939 5.63108 17.855 7.54052 15.972H22.2173C23.0858 16.8675 23.8268 17.6903 24.4725 18.4823C23.7248 18.8645 23.2531 19.6323 23.25 20.472V41.427C20.6501 42.5522 17.8309 43.0801 15 42.972C5.41127 42.972 0.750017 38.8013 0.750017 30.222C0.736607 27.7602 1.27155 25.3263 2.31602 23.097L2.67077 22.3275ZM28.875 23.472H38.6258C38.8329 23.472 39.0008 23.6399 39.0008 23.847V26.097C39.0008 26.3041 38.8329 26.472 38.6258 26.472H28.875C28.6679 26.472 28.5 26.3041 28.5 26.097V23.847C28.5 23.6399 28.6679 23.472 28.875 23.472ZM42 19.722H25.5C25.0858 19.722 24.75 20.0578 24.75 20.472V42.222C24.75 42.6362 25.0858 42.972 25.5 42.972H42C42.4142 42.972 42.75 42.6362 42.75 42.222V20.472C42.75 20.0578 42.4142 19.722 42 19.722ZM27 23.472C27 22.6436 27.6716 21.972 28.5 21.972H39C39.8284 21.972 40.5 22.6436 40.5 23.472V26.472C40.5 27.3004 39.8284 27.972 39 27.972H28.5C27.6716 27.972 27 27.3004 27 26.472V23.472ZM30 40.722H27.75C27.3358 40.722 27 40.3862 27 39.972C27 39.5578 27.3358 39.222 27.75 39.222H30C30.4142 39.222 30.75 39.5578 30.75 39.972C30.75 40.3862 30.4142 40.722 30 40.722ZM30 37.722H27.75C27.3358 37.722 27 37.3862 27 36.972C27 36.5578 27.3358 36.222 27.75 36.222H30C30.4142 36.222 30.75 36.5578 30.75 36.972C30.75 37.3862 30.4142 37.722 30 37.722ZM30 34.722H27.75C27.3358 34.722 27 34.3862 27 33.972C27 33.5578 27.3358 33.222 27.75 33.222H30C30.4142 33.222 30.75 33.5578 30.75 33.972C30.75 34.3862 30.4142 34.722 30 34.722ZM30 31.722H27.75C27.3358 31.722 27 31.3862 27 30.972C27 30.5578 27.3358 30.222 27.75 30.222H30C30.4142 30.222 30.75 30.5578 30.75 30.972C30.75 31.3862 30.4142 31.722 30 31.722ZM35.25 40.722H33C32.5858 40.722 32.25 40.3862 32.25 39.972C32.25 39.5578 32.5858 39.222 33 39.222H35.25C35.6642 39.222 36 39.5578 36 39.972C36 40.3862 35.6642 40.722 35.25 40.722ZM35.25 37.722H33C32.5858 37.722 32.25 37.3862 32.25 36.972C32.25 36.5578 32.5858 36.222 33 36.222H35.25C35.6642 36.222 36 36.5578 36 36.972C36 37.3862 35.6642 37.722 35.25 37.722ZM35.25 34.722H33C32.5858 34.722 32.25 34.3862 32.25 33.972C32.25 33.5578 32.5858 33.222 33 33.222H35.25C35.6642 33.222 36 33.5578 36 33.972C36 34.3862 35.6642 34.722 35.25 34.722ZM35.25 31.722H33C32.5858 31.722 32.25 31.3862 32.25 30.972C32.25 30.5578 32.5858 30.222 33 30.222H35.25C35.6642 30.222 36 30.5578 36 30.972C36 31.3862 35.6642 31.722 35.25 31.722ZM40.5 40.722H38.25C37.8358 40.722 37.5 40.3862 37.5 39.972C37.5 39.5578 37.8358 39.222 38.25 39.222H40.5C40.9142 39.222 41.25 39.5578 41.25 39.972C41.25 40.3862 40.9142 40.722 40.5 40.722ZM40.5 37.722H38.25C37.8358 37.722 37.5 37.3862 37.5 36.972C37.5 36.5578 37.8358 36.222 38.25 36.222H40.5C40.9142 36.222 41.25 36.5578 41.25 36.972C41.25 37.3862 40.9142 37.722 40.5 37.722ZM40.5 34.722H38.25C37.8358 34.722 37.5 34.3862 37.5 33.972C37.5 33.5578 37.8358 33.222 38.25 33.222H40.5C40.9142 33.222 41.25 33.5578 41.25 33.972C41.25 34.3862 40.9142 34.722 40.5 34.722ZM40.5 31.722H38.25C37.8358 31.722 37.5 31.3862 37.5 30.972C37.5 30.5578 37.8358 30.222 38.25 30.222H40.5C40.9142 30.222 41.25 30.5578 41.25 30.972C41.25 31.3862 40.9142 31.722 40.5 31.722Z" fill="#F58220"/>
<path d="M16.9026 25.4447C17.2704 25.4447 17.5687 25.1166 17.5687 24.7119C17.5687 24.3071 17.2704 23.979 16.9026 23.979H11.2352C10.8673 23.979 10.5691 24.3071 10.5691 24.7119C10.5691 25.1166 10.8673 25.4447 11.2352 25.4447H12.8571C13.574 25.4283 14.2252 25.9028 14.4909 26.6357H11.2349C10.867 26.6357 10.5687 26.9638 10.5687 27.3685C10.5687 27.7732 10.867 28.1014 11.2349 28.1014H14.4909C14.2252 28.8346 13.574 29.3091 12.8571 29.2923H11.2352C10.9623 29.2927 10.7171 29.4762 10.6162 29.7554C10.5154 30.0345 10.5795 30.353 10.7779 30.5591L14.8312 34.7731C15.0036 34.9567 15.2521 35.0236 15.4821 34.9491C15.712 34.8747 15.888 34.67 15.9427 34.4131C15.9973 34.1562 15.9222 33.8871 15.7462 33.7081L12.9098 30.7673C14.3657 30.7405 15.5796 29.5671 15.8818 28.1014H16.9026C17.2704 28.1014 17.5687 27.7732 17.5687 27.3685C17.5687 26.9638 17.2704 26.6357 16.9026 26.6357H15.8818C15.7966 26.207 15.6327 25.8019 15.4004 25.4447H16.9026Z" fill="white"/>
</g>
<defs>
<clipPath id="clip0">
<rect width="42" height="42" fill="white" transform="translate(0.75 0.972046)"/>
</clipPath>
</defs>
</svg>
