<svg width="42" height="43" viewBox="0 0 42 43" fill="none" xmlns="http://www.w3.org/2000/svg">
<g clip-path="url(#clip0)">
<path d="M1.42074 6.76518H5.09647L5.75471 8.21346H0.762502L1.42074 6.76518ZM6.15516 9.66173V31.0238C6.15516 31.2238 5.99305 31.3859 5.79309 31.3859H0.724122C0.524157 31.3859 0.362053 31.2238 0.362053 31.0238V9.66173H6.15516ZM0.724122 32.8342H5.79309C5.99305 32.8342 6.15516 32.9963 6.15516 33.1962V34.6445C6.15516 34.8445 5.99305 35.0066 5.79309 35.0066H0.724122C0.524157 35.0066 0.362053 34.8445 0.362053 34.6445V33.1962C0.362053 32.9963 0.524157 32.8342 0.724122 32.8342ZM3.58809 3.44718L4.43823 5.31691H2.07898L2.92912 3.44718C2.98794 3.31808 3.11674 3.23523 3.2586 3.23523C3.40047 3.23523 3.52927 3.31808 3.58809 3.44718ZM3.2586 42.2479C2.48945 42.251 1.7509 41.9469 1.20702 41.403C0.663136 40.8591 0.358958 40.1206 0.362053 39.3514V36.8169C0.362053 36.6169 0.524157 36.4548 0.724122 36.4548H5.79309C5.99305 36.4548 6.15516 36.6169 6.15516 36.8169V39.1964C6.16243 40.8251 4.88543 42.1704 3.2586 42.2479Z" fill="#F58220"/>
<path d="M37.2931 24.8687H33.6724C33.2725 24.8687 32.9483 25.1929 32.9483 25.5928V29.2135C32.9483 29.6134 33.2725 29.9376 33.6724 29.9376H37.2931C37.693 29.9376 38.0172 29.6134 38.0172 29.2135V25.5928C38.0172 25.1929 37.693 24.8687 37.2931 24.8687Z" fill="#F58220"/>
<path d="M27.8793 24.8687H24.2586C23.8587 24.8687 23.5345 25.1929 23.5345 25.5928V29.2135C23.5345 29.6134 23.8587 29.9376 24.2586 29.9376H27.8793C28.2792 29.9376 28.6034 29.6134 28.6034 29.2135V25.5928C28.6034 25.1929 28.2792 24.8687 27.8793 24.8687Z" fill="#F58220"/>
<path d="M27.8793 15.4548H24.2586C23.8587 15.4548 23.5345 15.779 23.5345 16.179V19.7997C23.5345 20.1996 23.8587 20.5238 24.2586 20.5238H27.8793C28.2792 20.5238 28.6034 20.1996 28.6034 19.7997V16.179C28.6034 15.779 28.2792 15.4548 27.8793 15.4548Z" fill="#F58220"/>
<path d="M18.4655 34.2825H14.8448C14.4449 34.2825 14.1207 34.6067 14.1207 35.0066V38.6273C14.1207 39.0272 14.4449 39.3514 14.8448 39.3514H18.4655C18.8654 39.3514 19.1896 39.0272 19.1896 38.6273V35.0066C19.1896 34.6067 18.8654 34.2825 18.4655 34.2825Z" fill="#F58220"/>
<path d="M18.4655 15.4548H14.8448C14.4449 15.4548 14.1207 15.779 14.1207 16.179V19.7997C14.1207 20.1996 14.4449 20.5238 14.8448 20.5238H18.4655C18.8654 20.5238 19.1896 20.1996 19.1896 19.7997V16.179C19.1896 15.779 18.8654 15.4548 18.4655 15.4548Z" fill="#F58220"/>
<path d="M18.4655 24.8687H14.8448C14.4449 24.8687 14.1207 25.1929 14.1207 25.5928V29.2135C14.1207 29.6134 14.4449 29.9376 14.8448 29.9376H18.4655C18.8654 29.9376 19.1896 29.6134 19.1896 29.2135V25.5928C19.1896 25.1929 18.8654 24.8687 18.4655 24.8687Z" fill="#F58220"/>
<path d="M39.4655 0.972046H12.6724C11.4726 0.972046 10.5 1.94467 10.5 3.14446V40.7996C10.5 41.9994 11.4726 42.972 12.6724 42.972H39.4655C40.6653 42.972 41.6379 41.9994 41.6379 40.7996V3.14446C41.6379 1.94467 40.6653 0.972046 39.4655 0.972046ZM20.6379 38.6272C20.6379 39.827 19.6653 40.7996 18.4655 40.7996H14.8448C13.645 40.7996 12.6724 39.827 12.6724 38.6272V35.0065C12.6724 33.8067 13.645 32.8341 14.8448 32.8341H18.4655C19.6653 32.8341 20.6379 33.8067 20.6379 35.0065V38.6272ZM20.6379 29.2134C20.6379 30.4132 19.6653 31.3858 18.4655 31.3858H14.8448C13.645 31.3858 12.6724 30.4132 12.6724 29.2134V25.5927C12.6724 24.3929 13.645 23.4203 14.8448 23.4203H18.4655C19.6653 23.4203 20.6379 24.3929 20.6379 25.5927V29.2134ZM20.6379 19.7996C20.6379 20.9994 19.6653 21.972 18.4655 21.972H14.8448C13.645 21.972 12.6724 20.9994 12.6724 19.7996V16.1789C12.6724 14.9792 13.645 14.0065 14.8448 14.0065H18.4655C19.6653 14.0065 20.6379 14.9792 20.6379 16.1789V19.7996ZM39.4655 38.6272C39.4655 39.827 38.4929 40.7996 37.2931 40.7996H28.6034C28.2035 40.7996 27.8793 40.4754 27.8793 40.0755C27.8793 39.6756 28.2035 39.3514 28.6034 39.3514H37.2931C37.693 39.3514 38.0172 39.0271 38.0172 38.6272V35.0065C38.0172 34.6066 37.693 34.2824 37.2931 34.2824H24.2586C23.8587 34.2824 23.5345 34.6066 23.5345 35.0065V38.6272C23.5345 39.0271 23.8587 39.3514 24.2586 39.3514H24.9828C25.3827 39.3514 25.7069 39.6756 25.7069 40.0755C25.7069 40.4754 25.3827 40.7996 24.9828 40.7996H24.2586C23.0588 40.7996 22.0862 39.827 22.0862 38.6272V35.0065C22.0862 33.8067 23.0588 32.8341 24.2586 32.8341H37.2931C38.4929 32.8341 39.4655 33.8067 39.4655 35.0065V38.6272ZM24.2586 23.4203H27.8793C29.0791 23.4203 30.0517 24.3929 30.0517 25.5927V29.2134C30.0517 30.4132 29.0791 31.3858 27.8793 31.3858H24.2586C23.0588 31.3858 22.0862 30.4132 22.0862 29.2134V25.5927C22.0862 24.3929 23.0588 23.4203 24.2586 23.4203ZM22.0862 19.7996V16.1789C22.0862 14.9792 23.0588 14.0065 24.2586 14.0065H27.8793C29.0791 14.0065 30.0517 14.9792 30.0517 16.1789V19.7996C30.0517 20.9994 29.0791 21.972 27.8793 21.972H24.2586C23.0588 21.972 22.0862 20.9994 22.0862 19.7996ZM39.4655 29.2134C39.4655 30.4132 38.4929 31.3858 37.2931 31.3858H33.6724C32.4726 31.3858 31.5 30.4132 31.5 29.2134V25.5927C31.5 24.3929 32.4726 23.4203 33.6724 23.4203H37.2931C38.4929 23.4203 39.4655 24.3929 39.4655 25.5927V29.2134ZM39.4655 19.7996C39.4655 20.9994 38.4929 21.972 37.2931 21.972H33.6724C32.4726 21.972 31.5 20.9994 31.5 19.7996V16.1789C31.5 14.9792 32.4726 14.0065 33.6724 14.0065H37.2931C38.4929 14.0065 39.4655 14.9792 39.4655 16.1789V19.7996ZM39.4655 10.3858C39.4655 11.1857 38.8171 11.8341 38.0172 11.8341H14.1207C13.3208 11.8341 12.6724 11.1857 12.6724 10.3858V4.59274C12.6724 3.79287 13.3208 3.14446 14.1207 3.14446H38.0172C38.8171 3.14446 39.4655 3.79287 39.4655 4.59274V10.3858Z" fill="#F58220"/>
<path d="M37.2931 15.4548H33.6724C33.2725 15.4548 32.9483 15.779 32.9483 16.179V19.7997C32.9483 20.1996 33.2725 20.5238 33.6724 20.5238H37.2931C37.693 20.5238 38.0172 20.1996 38.0172 19.7997V16.179C38.0172 15.779 37.693 15.4548 37.2931 15.4548Z" fill="#F58220"/>
</g>
<defs>
<clipPath id="clip0">
<rect width="42" height="42" fill="white" transform="translate(0 0.972046)"/>
</clipPath>
</defs>
</svg>
