<?xml version="1.0" encoding="utf-8"?>
<!-- Generator: Adobe Illustrator 16.0.3, SVG Export Plug-In . SVG Version: 6.00 Build 0)  -->
<!DOCTYPE svg PUBLIC "-//W3C//DTD SVG 1.1//EN" "http://www.w3.org/Graphics/SVG/1.1/DTD/svg11.dtd">
<svg version="1.1" id="Layer_1" xmlns="http://www.w3.org/2000/svg" xmlns:xlink="http://www.w3.org/1999/xlink" x="0px" y="0px"
	 width="75px" height="45px" viewBox="162.5 177.5 75 45" enable-background="new 162.5 177.5 75 45" xml:space="preserve">
<g>
	<path fill="#F58634" d="M213.588,191.053h-9.015c-0.538,0-0.94-0.402-0.94-0.94c0-0.539,0.402-0.942,0.94-0.942h9.015
		c0.538,0,0.941,0.403,0.941,0.942C214.529,190.65,214.126,191.053,213.588,191.053z M195.56,191.053h-4.439v4.439
		c0,0.538-0.403,0.942-0.941,0.942c-0.539,0-0.942-0.404-0.942-0.942v-4.439h-4.439c-0.538,0-0.941-0.402-0.941-0.94
		c0-0.539,0.403-0.942,0.941-0.942h4.439v-4.439c0-0.538,0.404-0.942,0.942-0.942c0.538,0,0.941,0.404,0.941,0.942v4.439h4.439
		c0.538,0,0.942,0.403,0.942,0.942C196.502,190.65,196.098,191.053,195.56,191.053z M194.35,205.18l-3.902,3.901l3.902,3.9
		c0.403,0.404,0.403,0.942,0,1.212c-0.135,0.134-0.404,0.269-0.673,0.269s-0.403-0.135-0.672-0.269l-3.901-3.902l-3.902,3.902
		c-0.134,0.134-0.403,0.269-0.672,0.269s-0.404-0.135-0.672-0.269c-0.404-0.403-0.404-0.941,0-1.212l3.901-3.9l-3.901-3.901
		c-0.404-0.404-0.404-0.942,0-1.211c0.403-0.404,0.941-0.404,1.21,0l3.901,3.901l3.901-3.901c0.404-0.404,0.942-0.404,1.211,0
		c0.403,0.403,0.403,0.941,0,1.211H194.35z M213.454,178.542h-28.791c-3.498,0-6.323,2.824-6.323,6.322v28.791
		c0,3.497,2.825,6.323,6.323,6.323h14.799c-2.96-2.691-4.843-6.459-4.843-10.764c0-7.938,6.458-14.395,14.395-14.395
		c4.305,0,8.207,1.884,10.763,4.843v-14.799C219.776,181.366,216.951,178.542,213.454,178.542z"/>
	<path fill="#F58634" d="M209.014,208.677v-0.135c1.345,0,2.556-2.019,2.556-3.362c0-1.749-3.094,0.673-3.229,0.134
		c0-0.134,0.27-0.403,0.27-0.672c-0.135-0.942-2.287-0.808-2.152,0.672C206.593,207.063,207.669,208.677,209.014,208.677z"/>
	<polygon fill="#F58634" points="209.148,216.076 209.82,215.135 209.148,210.965 208.476,215.135 	"/>
	<path fill="#F58634" d="M209.148,196.435c-6.996,0-12.511,5.65-12.511,12.512c0,6.995,5.65,12.512,12.511,12.512
		c6.996,0,12.512-5.649,12.512-12.512C221.66,201.95,216.01,196.435,209.148,196.435z M204.035,201.95l4.979-1.883
		c0.135,0,0.27,0,0.27,0l4.978,1.883c0,0,0.136,0.135,0.136,0.27c0,0.134,0,0.269-0.136,0.269h-0.135v1.211h0.135
		c0.136,0,0.136,0.135,0.136,0.135v0.403c0,0.135,0,0.404,0,0.538c0,0.135,0,0.135,0,0.135c-0.136,0-0.136,0-0.136,0v0.135h-0.807
		c-0.136,0-0.136,0-0.136,0c0-0.135,0-0.135,0-0.135l0.136-0.941c0-0.135,0.134-0.135,0.134-0.135h0.135v-1.075l-1.345,0.537
		c0.134,0.403,0.134,0.807,0.134,1.346c0,3.094-1.748,4.843-3.363,4.843c-1.614,0-3.363-1.883-3.363-4.843
		c0-0.539,0-1.077,0.135-1.48l-1.885-0.673c0,0-0.134-0.135-0.134-0.269C203.901,202.085,203.901,201.95,204.035,201.95z
		 M215.202,216.479h-11.973c-1.077,0,0.941-4.842,0.941-4.842c0.135-0.271,0.402-0.405,0.673-0.538l1.883-0.809l0.942-0.807
		l1.479,1.48l1.479-1.48l0.941,0.807l1.885,0.809c0.269,0,0.538,0.268,0.672,0.538h0.135
		C214.261,211.638,216.278,216.479,215.202,216.479z"/>
	<desc>Created with Snap</desc>
</g>
</svg>
