<svg width="14" height="26" viewBox="0 0 14 26" fill="none" xmlns="http://www.w3.org/2000/svg">
<path d="M2.47081 25.9966C2.04348 25.9975 1.62934 25.8467 1.3003 25.5705C1.11511 25.4149 0.962023 25.2238 0.849816 25.0082C0.737608 24.7926 0.668482 24.5567 0.646396 24.314C0.62431 24.0713 0.649699 23.8266 0.721109 23.5939C0.792518 23.3611 0.908542 23.1449 1.06254 22.9577L9.25608 13.0254L1.35517 3.07462C1.20325 2.88508 1.0898 2.66699 1.02134 2.43287C0.952878 2.19876 0.93076 1.95325 0.956253 1.71045C0.981747 1.46765 1.05435 1.23235 1.16989 1.01807C1.28543 0.803793 1.44163 0.614762 1.62951 0.461845C1.81874 0.293152 2.04034 0.165908 2.28041 0.0881012C2.52047 0.0102941 2.77382 -0.0163965 3.02456 0.00970332C3.27529 0.0358031 3.51799 0.11413 3.73742 0.239769C3.95686 0.365409 4.1483 0.535647 4.29972 0.7398L13.1334 11.858C13.4024 12.1896 13.5494 12.6055 13.5494 13.0347C13.5494 13.4639 13.4024 13.8798 13.1334 14.2114L3.98881 25.3296C3.80533 25.5538 3.57227 25.7311 3.30852 25.847C3.04477 25.9629 2.75777 26.0142 2.47081 25.9966Z" fill="#0072BC"/>
</svg>
