<svg width="22" height="22" viewBox="0 0 22 22" fill="none" xmlns="http://www.w3.org/2000/svg">
<circle cx="11" cy="11" r="10.5" fill="white" stroke="#0072BC"/>
<path d="M9.59766 8.3125V14H8.61719L6.06641 9.92578V14H5.08594V8.3125H6.06641L8.625 12.3945V8.3125H9.59766ZM10.7656 8.3125H12.7773C13.2096 8.3125 13.5781 8.3776 13.8828 8.50781C14.1875 8.63802 14.4206 8.83073 14.582 9.08594C14.7461 9.33854 14.8281 9.65104 14.8281 10.0234C14.8281 10.3073 14.776 10.5573 14.6719 10.7734C14.5677 10.9896 14.4206 11.1719 14.2305 11.3203C14.0404 11.4661 13.8138 11.5794 13.5508 11.6602L13.2539 11.8047H11.4453L11.4375 11.0273H12.793C13.0273 11.0273 13.2227 10.9857 13.3789 10.9023C13.5352 10.819 13.6523 10.7057 13.7305 10.5625C13.8112 10.4167 13.8516 10.2526 13.8516 10.0703C13.8516 9.8724 13.8125 9.70052 13.7344 9.55469C13.6589 9.40625 13.5417 9.29297 13.3828 9.21484C13.224 9.13411 13.0221 9.09375 12.7773 9.09375H11.7461V14H10.7656V8.3125ZM14.0117 14L12.6758 11.4453L13.7031 11.4414L15.0586 13.9492V14H14.0117ZM16.8516 8.3125V14H15.8711V8.3125H16.8516Z" fill="#0072BC"/>
</svg>
