<?xml version="1.0" encoding="UTF-8"?>
<!DOCTYPE svg PUBLIC "-//W3C//DTD SVG 1.0//EN" "http://www.w3.org/TR/2001/REC-SVG-20010904/DTD/svg10.dtd">
<!-- Creator: CorelDRAW X6 -->
<svg xmlns="http://www.w3.org/2000/svg" xml:space="preserve" width="42px" height="43px" version="1.0" style="shape-rendering:geometricPrecision; text-rendering:geometricPrecision; image-rendering:optimizeQuality; fill-rule:evenodd; clip-rule:evenodd"
viewBox="0 0 42 43"
 xmlns:xlink="http://www.w3.org/1999/xlink">
 <defs>
  <style type="text/css">
   <![CDATA[
    .fil0 {fill:none}
    .fil1 {fill:#F58634}
   ]]>
  </style>
 </defs>
 <g id="Layer_x0020_1">
  <metadata id="CorelCorpID_0Corel-Layer"/>
  <rect class="fil0" width="42" height="43.0004"/>
  <g id="_202425520">
   <path class="fil1" d="M30 24c-1,0 -2,1 -2,2l0 2c0,1 1,2 2,2l5 0 0 -6 -5 0zm2 4c-1,0 -1,-1 -1,-1 0,-1 1,-1 1,-1 1,0 1,1 1,1 0,1 -1,1 -1,1zm2 -13l-26 0c-2,0 -4,2 -4,4l0 20c0,2 1,3 3,3l26 0c2,0 3,-1 3,-3l0 -8 -5 0c-2,0 -3,-2 -3,-3l0 -2c0,-2 2,-3 3,-3l5 0 0 -2c0,-1 -1,-2 -2,-2l-26 0c0,0 -1,0 -1,-1 0,0 0,-1 1,-1l26 0c2,0 3,2 3,3l0 18c1,-1 2,-2 2,-3l0 -15c0,-3 -2,-5 -5,-5zm-4 8c-1,0 -2,1 -2,2l0 2c0,1 1,2 2,2l5 0 0 -6 -5 0zm2 4c-1,0 -1,-1 -1,-1 0,-1 1,-1 1,-1 1,0 1,1 1,1 0,1 -1,1 -1,1zm-2 -4c-1,0 -2,1 -2,2l0 2c0,1 1,2 2,2l5 0 0 -6 -5 0zm2 4c-1,0 -1,-1 -1,-1 0,-1 1,-1 1,-1 1,0 1,1 1,1 0,1 -1,1 -1,1z"/>
   <g>
    <path class="fil1" d="M17 10l-4 -4c0,0 0,0 0,0l0 0c0,0 0,0 0,0l-4 4c0,0 0,0 0,0 0,0 0,0 0,0 0,0 0,0 0,0l2 0 0 5c0,0 0,0 0,0l3 0c0,0 0,0 0,0l0 -5 2 0c0,0 0,0 0,0 0,0 0,0 0,0z"/>
    <path class="fil1" d="M25 5l-4 -4c0,0 0,0 0,0l0 0c0,0 0,0 0,0l-4 4c0,0 0,0 0,0 0,0 0,0 0,0 0,0 0,0 0,0l2 0 0 10c0,0 0,0 0,0l3 0c0,0 0,0 0,0l0 -10 2 0c0,0 0,0 0,0 0,0 0,0 0,0z"/>
    <path class="fil1" d="M34 10l-4 -4c0,0 0,0 0,0l0 0c0,0 0,0 0,0l-4 4c0,0 0,0 0,0 0,0 0,0 0,0 0,0 0,0 0,0l2 0 0 5c0,0 0,0 0,0l3 0c0,0 0,0 0,0l0 -5 2 0c0,0 0,0 0,0 0,0 0,0 0,0z"/>
   </g>
  </g>
 </g>
</svg>
